<?xml version="1.0" standalone="no"?>
<!DOCTYPE svg PUBLIC "-//W3C//DTD SVG 20010904//EN"
 "http://www.w3.org/TR/2001/REC-SVG-20010904/DTD/svg10.dtd">
<svg version="1.0" xmlns="http://www.w3.org/2000/svg"
 width="4000.000000pt" height="4000.000000pt" viewBox="0 0 4000.000000 4000.000000"
 preserveAspectRatio="xMidYMid meet">
<metadata>
Created by potrace 1.11, written by Peter Selinger 2001-2013
</metadata>
<g transform="translate(0.000000,4000.000000) scale(0.100000,-0.100000)"
fill="#000000" stroke="none">
<path d="M19645 37530 c-758 -49 -1462 -223 -2015 -499 -197 -98 -10775 -6240
-10969 -6369 -233 -154 -423 -312 -672 -561 -124 -125 -272 -282 -329 -350
-791 -953 -1298 -2127 -1380 -3199 -14 -185 15 -12505 30 -12715 66 -909 459
-1934 1077 -2804 402 -568 969 -1129 1458 -1445 96 -62 480 -283 3680 -2120
781 -449 2696 -1548 4255 -2443 1559 -896 2889 -1656 2955 -1691 501 -261
1149 -439 1855 -509 217 -22 723 -30 950 -16 781 49 1475 221 2045 506 150 75
10726 6211 10914 6332 413 266 899 735 1252 1208 223 299 404 593 579 940 317
625 497 1201 577 1835 17 136 18 260 16 1925 -4 4100 -24 10701 -33 10880 -22
418 -95 791 -245 1240 -95 285 -178 484 -325 780 -283 569 -631 1071 -1047
1508 -341 358 -664 633 -952 811 -49 30 -1668 961 -3598 2069 -1929 1108
-4334 2488 -5343 3067 -1009 580 -1896 1084 -1970 1122 -498 250 -1145 421
-1830 483 -208 19 -738 27 -935 15z m1970 -8680 c948 -41 1742 -228 2460 -581
1124 -551 1878 -1469 2165 -2632 129 -526 162 -1120 89 -1622 -145 -1000 -676
-1917 -1466 -2531 -435 -339 -937 -572 -1452 -675 l-111 -22 0 -46 0 -47 133
-18 c72 -9 220 -35 327 -56 1253 -250 2271 -932 2873 -1925 293 -483 485
-1044 561 -1640 77 -604 27 -1343 -130 -1945 -183 -702 -510 -1309 -981 -1825
-271 -297 -619 -579 -988 -801 -191 -115 -562 -299 -771 -383 -771 -308 -1624
-474 -2639 -511 -165 -6 -1673 -10 -3862 -10 l-3593 0 0 8640 0 8640 3578 0
c2186 0 3666 -4 3807 -10z"/>
<path d="M16910 24090 l0 -2581 1838 4 c1911 4 1868 3 2232 48 1002 124 1764
486 2214 1049 134 169 252 373 331 574 219 560 231 1323 30 1907 -109 313
-322 639 -555 849 -497 445 -1172 677 -2098 720 -117 5 -1033 10 -2099 10
l-1893 0 0 -2580z"/>
<path d="M16910 16615 l0 -2845 1968 0 c2223 1 2404 4 2842 61 1296 166 2167
714 2543 1600 204 480 275 1116 191 1699 -119 824 -552 1437 -1294 1833 -385
205 -890 353 -1473 431 -471 63 -584 66 -2799 66 l-1978 0 0 -2845z"/>
</g>
</svg>
